<svg xmlns="http://www.w3.org/2000/svg" width="49.294" height="40.395" viewBox="0 0 49.294 40.395">
  <g id="book" transform="translate(0 -2)">
    <path id="Path_18" data-name="Path 18" d="M9.9,2.564c4.927-.986,11.406-1.116,15.836,3.31a1.54,1.54,0,0,1,.45,1.09v33.89a1.54,1.54,0,0,1-2.63,1.09c-2.6-2.6-6.516-3.263-10.691-2.834A33.075,33.075,0,0,0,2.231,42.229,1.54,1.54,0,0,1,0,40.853V6.964A1.541,1.541,0,0,1,.851,5.586l.69,1.378L.85,5.586l.007,0,.012-.007.04-.018q.335-.167.678-.318A39.922,39.922,0,0,1,9.905,2.564ZM3.081,7.949V38.475a35.667,35.667,0,0,1,9.47-2.428,17.88,17.88,0,0,1,10.556,1.725V7.634C19.831,4.773,15,4.689,10.505,5.589A36.84,36.84,0,0,0,3.081,7.949Z" transform="translate(0 0)" fill="#abda36" fill-rule="evenodd"/>
    <path id="Path_19" data-name="Path 19" d="M33.16,2.564c-4.923-.986-11.4-1.116-15.836,3.31a1.54,1.54,0,0,0-.449,1.09v33.89a1.54,1.54,0,0,0,2.63,1.09c2.6-2.6,6.516-3.263,10.691-2.834a33.075,33.075,0,0,1,10.635,3.121,1.54,1.54,0,0,0,2.231-1.376V6.964a1.541,1.541,0,0,0-.851-1.378l-.69,1.378.69-1.378-.007,0-.012-.007-.04-.018-.145-.071Q40.8,4.921,39.546,4.44A39.928,39.928,0,0,0,33.16,2.564Zm6.822,5.385V38.475a35.667,35.667,0,0,0-9.47-2.428,17.88,17.88,0,0,0-10.556,1.725V7.634c3.275-2.862,8.106-2.945,12.6-2.046a36.835,36.835,0,0,1,7.424,2.361Z" transform="translate(6.232 0)" fill="#abda36" fill-rule="evenodd"/>
  </g>
</svg>
