<svg id="clock" xmlns="http://www.w3.org/2000/svg" width="58.144" height="58.144" viewBox="0 0 58.144 58.144">
  <path id="Path_7" data-name="Path 7" d="M29.072,54.51A25.438,25.438,0,1,0,3.634,29.072,25.438,25.438,0,0,0,29.072,54.51ZM58.144,29.072A29.072,29.072,0,1,1,29.072,0,29.072,29.072,0,0,1,58.144,29.072Z" fill="#abda36" fill-rule="evenodd"/>
  <path id="Path_8" data-name="Path 8" d="M17.567,6.75a1.817,1.817,0,0,1,1.817,1.817V27.5l11.8,6.745a1.817,1.817,0,0,1-1.8,3.154L16.666,30.132a1.817,1.817,0,0,1-.916-1.578V8.567A1.817,1.817,0,0,1,17.567,6.75Z" transform="translate(9.688 4.152)" fill="#abda36" fill-rule="evenodd"/>
</svg>
