<svg xmlns="http://www.w3.org/2000/svg" width="60.53" height="52.47" viewBox="0 0 60.53 52.47">
  <path id="home" d="M32.62,2.678a2.018,2.018,0,0,0-2.5,0L1.125,25.3l2.5,3.187L7.178,25.7v24.98a4.035,4.035,0,0,0,4.035,4.035H51.566A4.035,4.035,0,0,0,55.6,50.679V25.721l3.551,2.764,2.5-3.167Zm2.8,48H27.355V34.538h8.071Zm4.035,0V34.538A4.035,4.035,0,0,0,35.425,30.5H27.355a4.035,4.035,0,0,0-4.035,4.035V50.679H11.213V22.554L31.39,6.836,51.566,22.573V50.679Z" transform="translate(-1.125 -2.244)" fill="#abda36"/>
</svg>
