<svg id="Group_39" data-name="Group 39" xmlns="http://www.w3.org/2000/svg" xmlns:xlink="http://www.w3.org/1999/xlink" width="135.2" height="54.419" viewBox="0 0 135.2 54.419">
  <defs>
    <clipPath id="clip-path">
      <rect id="Rectangle_34" data-name="Rectangle 34" width="135.2" height="54.419" fill="#fff"/>
    </clipPath>
  </defs>
  <g id="Group_38" data-name="Group 38" clip-path="url(#clip-path)">
    <path id="Path_20" data-name="Path 20" d="M17.469,20.017c1.007-1.435,1.969-2.9,3.026-4.3C24.426,10.534,29.874,7.737,36,6.13a46.321,46.321,0,0,1,17.306-.9,57.166,57.166,0,0,0,5.8.253c2.714.041,5.43,0,8.145.017a64.229,64.229,0,0,0,22.727-4.09c.933-.342,1.806-.844,2.727-1.219.974-.4,1.333-.2,1.387.871.069,1.382.013,2.77.038,4.154.014.774.1,1.546.126,2.32a2.271,2.271,0,0,1-1.792,2.6c-3.883,1.252-7.726,2.684-11.683,3.635a48.441,48.441,0,0,1-8.877,1.021,71.458,71.458,0,0,1-9.468-.063,67.953,67.953,0,0,1-9.305-1.5,48.667,48.667,0,0,0-15.655-1.357c-7.341.741-13.834,3.434-18.605,9.388-1.081,1.349-1.384,1.379-2.539.093C12.9,17.52,9.068,14.2,4.231,12.242a22.861,22.861,0,0,0-3-.969A1.356,1.356,0,0,1,0,9.793C.026,7.854-.028,5.913.023,3.976c.029-1.085.431-1.366,1.349-.8a58.885,58.885,0,0,1,6.46,4.333A33.446,33.446,0,0,1,16.98,19.383a4.3,4.3,0,0,0,.346.564c.027.039.1.049.142.07" transform="translate(0 0)" fill="#fff"/>
    <path id="Path_21" data-name="Path 21" d="M132.244,93.94c-1.772,0-3.544-.021-5.315.006-1.581.024-1.954.688-1.22,2.093a3.947,3.947,0,0,0,5.873,1.176c1.756-1.47,3.657-1.356,5.632-1.281,1.061.04,1.234.378.906,1.395a7.137,7.137,0,0,1-3.518,4.028,11.594,11.594,0,0,1-9,1,7.907,7.907,0,0,1-5.7-5.342c-1.333-4.1-1.323-8.074,1.438-11.649a8.459,8.459,0,0,1,2.368-2.033c3.539-2.088,9.664-1.259,12.545,1.649,2.135,2.155,2.638,4.906,2.693,7.786.017.872-.45,1.255-1.38,1.223-1.769-.061-3.542-.018-5.314-.018V93.94m-3.289-3.7v0c.934,0,1.869.023,2.8-.008.617-.021.864-.346.711-.991a3.091,3.091,0,0,0-3.2-2.331c-1.9-.063-3.314.73-3.739,2.083-.232.737-.026,1.21.788,1.244.878.036,1.758.008,2.637.008" transform="translate(-79.457 -54.851)" fill="#fff"/>
    <path id="Path_22" data-name="Path 22" d="M356.229,95.919q1.284-4.015,2.566-8.029c.017-.053.025-.108.039-.162,1.13-4.13,1.646-4.512,5.865-4.34,1.4.057,1.568.273,1.088,1.611-1.178,3.283-2.389,6.555-3.585,9.831q-1.937,5.305-3.871,10.612c-1.219,3.361-2.863,4.542-6.456,4.613-.111,0-.221,0-.332,0-3.12-.041-3.075.5-3.011-3.254a1.074,1.074,0,0,1,1.224-1.211,5.355,5.355,0,0,0,1.151-.129c2.008-.466,2.442-1.3,1.709-3.213q-3.266-8.533-6.522-17.07c-.579-1.519-.429-1.751,1.163-1.789,1.107-.026,2.216.026,3.323-.009.994-.032,1.454.411,1.746,1.368,1.128,3.7,2.345,7.377,3.529,11.063l.372.106" transform="translate(-230.828 -55.644)" fill="#fff"/>
    <path id="Path_23" data-name="Path 23" d="M307.3,91.535c0,1,.023,1.993,0,2.988-.12,4.374-2.153,6.982-6.428,7.826a16.648,16.648,0,0,1-6.585.167c-4.264-.869-6.343-4.689-4.734-8.674a4.858,4.858,0,0,1,3.382-2.932c1.7-.476,3.46-.709,5.186-1.081a13.846,13.846,0,0,0,2.548-.71,1.481,1.481,0,0,0,.808-1.077A1.523,1.523,0,0,0,300.6,87a4.8,4.8,0,0,0-4.621.232c-1.811,1.224-3.743.541-5.627.572-.143,0-.481-.692-.416-.995a4.8,4.8,0,0,1,2.883-3.435,14.466,14.466,0,0,1,11.464-.087,4.735,4.735,0,0,1,3,4.59c.045,1.216.008,2.435.008,3.652h.011m-9.923,6.7c2.822-.007,4.522-1.719,4.276-4.255-.077-.794-.366-1.069-1.171-.852-1.167.314-2.353.557-3.533.821a2.506,2.506,0,0,0-2.225,2.629c.146,1.082,1.072,1.66,2.653,1.656" transform="translate(-192.924 -54.841)" fill="#fff"/>
    <path id="Path_24" data-name="Path 24" d="M227.993,95.235c0-1.5-.006-2.99,0-4.486.022-4.433,1.55-6.526,5.806-7.7a12.206,12.206,0,0,1,7.03-.07c3.9,1.211,5.525,2.884,5.727,6.928.191,3.812.067,7.64.1,11.461.009.992-.454,1.433-1.422,1.36a13.612,13.612,0,0,1-2.138-.214,2.71,2.71,0,0,1-2.43-3.058c-.032-3.046.01-6.092-.014-9.137-.015-1.929-.67-2.772-2.422-3.269a3.342,3.342,0,0,0-3.925,1.379,4.163,4.163,0,0,0-.563,2.024c-.035,3.543.006,7.087.041,10.631.012,1.273-.2,1.532-1.492,1.639-.055,0-.111,0-.166,0-3.887.212-4.157-.038-4.151-3.839q0-1.828,0-3.655Z" transform="translate(-152.185 -55.07)" fill="#fff"/>
    <path id="Path_25" data-name="Path 25" d="M65.231,97.165a6.738,6.738,0,0,0,.654-1.08c1.023-3.271,2.043-6.542,3.027-9.825.648-2.16,1.414-2.777,3.677-2.814.443-.007.886-.007,1.329,0,2.089.012,2.323.344,1.554,2.348-1.841,4.8-3.725,9.586-5.547,14.395a4.377,4.377,0,0,1-4.639,3.066A4.473,4.473,0,0,1,60.87,100.3c-1.377-3.56-2.707-7.138-4.057-10.708-.587-1.553-1.2-3.1-1.757-4.66-.41-1.152-.242-1.416.953-1.465,1.216-.05,2.437.016,3.654-.017.893-.024,1.256.457,1.491,1.238q1.534,5.084,3.135,10.147c.222.705.552,1.377.942,2.335" transform="translate(-36.618 -55.7)" fill="#fff"/>
    <path id="Path_26" data-name="Path 26" d="M184.781,97.312c.125-1.981.119-3.981.4-5.939.7-4.863,4.039-6.68,7.954-7.43a24.751,24.751,0,0,1,2.469-.269c1.159-.1,1.5.17,1.567,1.352.051.937,0,1.88.009,2.82.009.988-.51,1.393-1.452,1.374-.387-.008-.775,0-1.161.03-2.424.188-3.61,1.369-3.664,3.823-.06,2.709-.008,5.42-.009,8.13,0,2.069-.2,2.265-2.261,2.3-3.743.067-3.743.067-3.738-3.7q0-1.244,0-2.489l-.115-.007" transform="translate(-123.35 -55.843)" fill="#fff"/>
  </g>
</svg>
