<svg xmlns="http://www.w3.org/2000/svg" width="61" height="61" viewBox="0 0 61 61">
  <g id="sun-line" transform="translate(-0.91 -0.91)">
    <path id="Path_9" data-name="Path 9" d="M18.785,10.547a1.785,1.785,0,0,0,1.785-1.785V2.695a1.785,1.785,0,1,0-3.569,0V8.763A1.785,1.785,0,0,0,18.785,10.547Z" transform="translate(12.625 0)" fill="#abda36"/>
    <path id="Path_10" data-name="Path 10" d="M18.785,29.69A1.785,1.785,0,0,0,17,31.475v6.068a1.785,1.785,0,0,0,3.569,0V31.475A1.785,1.785,0,0,0,18.785,29.69Z" transform="translate(12.625 22.583)" fill="#abda36"/>
    <path id="Path_11" data-name="Path 11" d="M10.392,12.926a1.793,1.793,0,0,0,2.481-2.588L8.625,6.109A1.785,1.785,0,0,0,6.109,8.625Z" transform="translate(3.743 3.743)" fill="#abda36"/>
    <path id="Path_12" data-name="Path 12" d="M29.025,26.491a1.792,1.792,0,0,0-2.534,2.534l4.3,4.283a1.779,1.779,0,1,0,2.516-2.516Z" transform="translate(19.661 19.661)" fill="#abda36"/>
    <path id="Path_13" data-name="Path 13" d="M10.547,18.785A1.785,1.785,0,0,0,8.763,17H2.695a1.785,1.785,0,1,0,0,3.569H8.763A1.785,1.785,0,0,0,10.547,18.785Z" transform="translate(0 12.625)" fill="#abda36"/>
    <path id="Path_14" data-name="Path 14" d="M37.543,17H31.475a1.785,1.785,0,1,0,0,3.569h6.068a1.785,1.785,0,0,0,0-3.569Z" transform="translate(22.583 12.625)" fill="#abda36"/>
    <path id="Path_15" data-name="Path 15" d="M10.435,26.491l-4.283,4.3a1.779,1.779,0,1,0,2.516,2.516l4.3-4.283a1.792,1.792,0,1,0-2.534-2.534Z" transform="translate(3.699 19.661)" fill="#abda36"/>
    <path id="Path_16" data-name="Path 16" d="M27.789,13.453a1.785,1.785,0,0,0,1.267-.518l4.283-4.3a1.779,1.779,0,1,0-2.516-2.516l-4.3,4.283a1.785,1.785,0,0,0,1.267,3.052Z" transform="translate(19.683 3.679)" fill="#abda36"/>
    <path id="Path_17" data-name="Path 17" d="M26.181,7.751A18.079,18.079,0,1,0,44.028,25.829,18.079,18.079,0,0,0,26.181,7.751Zm0,32.57A14.509,14.509,0,1,1,40.458,25.829,14.509,14.509,0,0,1,26.181,40.321Z" transform="translate(5.461 5.366)" fill="#abda36"/>
  </g>
</svg>
